<svg id="Layer_1" data-name="Layer 1" xmlns="http://www.w3.org/2000/svg" xmlns:xlink="http://www.w3.org/1999/xlink" viewBox="0 0 27 27"><defs><style>.cls-1{fill:#745aa6;}.cls-2,.cls-3{fill:#693996;}.cls-2,.cls-6{mix-blend-mode:multiply;}.cls-4{opacity:0.35;}.cls-5{fill:#392a77;}.cls-6{fill:#332132;opacity:0.1;}</style><symbol id="Rogue-seal" data-name="Rogue-seal" viewBox="0 0 27 27"><path class="cls-1" d="M27,13.5c0,1.76-1.35,3.24-2,4.77s-.78,3.58-2,4.78-3.19,1.31-4.78,2-3,2-4.77,2-3.24-1.35-4.77-2-3.58-.78-4.78-2-1.31-3.19-2-4.78-2-3-2-4.77,1.35-3.24,2-4.77S2.76,5.15,4,4,7.14,2.64,8.73,2s3-2,4.77-2,3.24,1.35,4.77,2,3.58.78,4.78,2,1.31,3.19,2,4.78S27,11.74,27,13.5Z"/><circle class="cls-2" cx="13.5" cy="13" r="10.74"/><circle class="cls-3" cx="13.5" cy="14" r="10.74"/><g class="cls-4"><path class="cls-5" d="M13.5,5.64c-2,1-3.74,3.77-4.31,5.93A4.41,4.41,0,0,1,12,12.65l.33-.35a6.74,6.74,0,0,0-1.86-1.22c.44-1.11,1.12-2.79,2-2.89.33,0,.7.17,1.09.74,1.23-2,2.4.66,3.08,2.15a8.16,8.16,0,0,0-1.85,1.26l.31.34a4.5,4.5,0,0,1,2.76-1.11C17.16,9.42,15.52,6.71,13.5,5.64ZM12.29,10c-.32,0-.57.14-.57.31s.25.31.57.31.56-.14.56-.31S12.6,10,12.29,10Zm2.42,0c-.31,0-.57.14-.57.31s.26.31.57.31.57-.14.57-.31S15,10,14.71,10Zm-4.18,2.49-.23.4a17.72,17.72,0,0,0-1.54,7.86,10.32,10.32,0,0,0,3.37,1.3C10.88,21.23,10,19.24,10,16.92a7.5,7.5,0,0,1,1.11-4.09,3.56,3.56,0,0,0-.58-.31Zm5.94,0a3.09,3.09,0,0,0-.57.31A7.55,7.55,0,0,1,17,16.92c0,2.32-.88,4.3-2.12,5.16a10.71,10.71,0,0,0,3.36-1.3,17.62,17.62,0,0,0-1.54-7.84c-.08-.15-.15-.28-.23-.41ZM13,13.36a3.66,3.66,0,0,1,0,2.38H11.61v.65a5.67,5.67,0,0,1,1.07-.23,13.78,13.78,0,0,0,.7,5.11l.15.39.15-.38a12.65,12.65,0,0,0,.63-5.1,7.92,7.92,0,0,1,1.08.21v-.65H13.93a4.11,4.11,0,0,1,0-2.38Z"/></g><path class="cls-1" d="M13.5,4.92c-2,1-3.74,3.77-4.31,5.93A4.47,4.47,0,0,1,12,11.93l.33-.35a7,7,0,0,0-1.86-1.22c.44-1.11,1.12-2.79,2-2.89.33,0,.7.17,1.09.74,1.23-2.05,2.4.66,3.08,2.15a8.16,8.16,0,0,0-1.85,1.26L15,12a4.5,4.5,0,0,1,2.76-1.11C17.16,8.7,15.52,6,13.5,4.92ZM12.29,9.31c-.32,0-.57.14-.57.31s.25.31.57.31.56-.14.56-.31S12.6,9.31,12.29,9.31Zm2.42,0c-.31,0-.57.14-.57.31s.26.31.57.31.57-.14.57-.31S15,9.31,14.71,9.31ZM10.53,11.8l-.23.4a17.72,17.72,0,0,0-1.54,7.86,10.32,10.32,0,0,0,3.37,1.3C10.88,20.51,10,18.52,10,16.2a7.5,7.5,0,0,1,1.11-4.09,3.56,3.56,0,0,0-.58-.31Zm5.94,0a3.09,3.09,0,0,0-.57.31A7.55,7.55,0,0,1,17,16.2c0,2.32-.88,4.3-2.12,5.16a10.71,10.71,0,0,0,3.36-1.3,17.62,17.62,0,0,0-1.54-7.84c-.08-.15-.15-.28-.23-.41ZM13,12.64a3.66,3.66,0,0,1,0,2.38H11.61v.65a5.67,5.67,0,0,1,1.07-.23,13.78,13.78,0,0,0,.7,5.11l.15.39.15-.38a12.65,12.65,0,0,0,.63-5.1,7.92,7.92,0,0,1,1.08.21V15H13.93a4.11,4.11,0,0,1,0-2.38Z"/><path class="cls-6" d="M23.05,23.05c1.19-1.2,1.31-3.19,2-4.78s2-3,2-4.77-1.35-3.24-2-4.77-.78-3.58-2-4.78-3.19-1.31-4.78-2-3-2-4.77-2V27c1.76,0,3.24-1.35,4.77-2S21.85,24.24,23.05,23.05Z"/></symbol></defs><use width="27" height="27" xlink:href="#Rogue-seal"/></svg>