<svg id="Layer_1" data-name="Layer 1" xmlns="http://www.w3.org/2000/svg" xmlns:xlink="http://www.w3.org/1999/xlink" viewBox="0 0 27 27"><defs><style>.cls-1{fill:#25abb1;}.cls-2,.cls-3{fill:#1f778d;}.cls-2,.cls-6{mix-blend-mode:multiply;}.cls-4{opacity:0.5;}.cls-5{fill:#085163;}.cls-6{fill:#332132;opacity:0.1;}</style><symbol id="Crusader-seal" data-name="Crusader-seal" viewBox="0 0 27 27"><path class="cls-1" d="M27,13.5c0,1.76-1.35,3.24-2,4.77s-.78,3.58-2,4.78-3.19,1.31-4.78,2-3,2-4.77,2-3.24-1.35-4.77-2-3.58-.78-4.78-2-1.31-3.19-2-4.78-2-3-2-4.77,1.35-3.24,2-4.77S2.76,5.15,4,4,7.14,2.64,8.73,2s3-2,4.77-2,3.24,1.35,4.77,2,3.58.78,4.78,2,1.31,3.19,2,4.78S27,11.74,27,13.5Z"/><circle class="cls-2" cx="13.5" cy="13" r="10.74"/><circle class="cls-3" cx="13.5" cy="14" r="10.74"/><g class="cls-4"><path class="cls-5" d="M11.79,8.12a6.74,6.74,0,0,1-2.44,1A1.67,1.67,0,0,1,8.64,9a2.59,2.59,0,0,0-.27,2.19,4,4,0,0,0,.93,1.68,6,6,0,0,1,.08-.63A1.84,1.84,0,0,1,10,11a.76.76,0,0,1,.69-.07,1.36,1.36,0,0,1,.49.34l1.79-1L11.79,8.12Zm3.42,0L14,10.21l1.79,1a1.36,1.36,0,0,1,.49-.34A.76.76,0,0,1,17,11a1.84,1.84,0,0,1,.65,1.31,6,6,0,0,1,.08.63,4,4,0,0,0,.93-1.68A2.59,2.59,0,0,0,18.36,9a1.67,1.67,0,0,1-.71.06,6.74,6.74,0,0,1-2.44-1Zm-7.64.13a2.8,2.8,0,0,0-1.2,1.68,3.92,3.92,0,0,0,.24,2.29,6.07,6.07,0,0,0,3,3.18,6.27,6.27,0,0,1-.28-1.74,4.29,4.29,0,0,1-1.47-2.28,3.18,3.18,0,0,1,.3-2.58,2.21,2.21,0,0,1-.55-.55Zm11.86,0a2.21,2.21,0,0,1-.55.55,3.18,3.18,0,0,1,.3,2.58,4.29,4.29,0,0,1-1.47,2.28,6.27,6.27,0,0,1-.28,1.74,6.07,6.07,0,0,0,3-3.18,3.92,3.92,0,0,0,.24-2.29,2.8,2.8,0,0,0-1.2-1.68Zm-6.54,2.68-.89.52c1.61,3,2.54,6.37,4.64,9l1-.77A15.27,15.27,0,0,1,15,15.39c-.64-1.4-1.18-2.85-2.08-4.46Zm1.22,0-.29.54q.31.62.57,1.2c.2-.41.4-.82.61-1.22l-.89-.52Zm-1.5,3.15c-.19.44-.38.88-.58,1.31a15.27,15.27,0,0,1-2.69,4.27l1,.77a22.12,22.12,0,0,0,2.82-5c-.19-.44-.38-.89-.57-1.32ZM8.72,19.91l-.53.7,1.54,1.15.53-.7L8.72,19.91Zm9.56,0-1.54,1.15.53.7,1.54-1.15-.53-.7Z"/></g><path class="cls-1" d="M11.79,7.4a6.74,6.74,0,0,1-2.44,1,1.67,1.67,0,0,1-.71-.06,2.59,2.59,0,0,0-.27,2.19,4,4,0,0,0,.93,1.68,6,6,0,0,1,.08-.63A1.84,1.84,0,0,1,10,10.25a.76.76,0,0,1,.69-.07,1.36,1.36,0,0,1,.49.34l1.79-1L11.79,7.4Zm3.42,0L14,9.49l1.79,1a1.36,1.36,0,0,1,.49-.34.76.76,0,0,1,.69.07,1.84,1.84,0,0,1,.65,1.31,6,6,0,0,1,.08.63,4,4,0,0,0,.93-1.68,2.59,2.59,0,0,0-.27-2.19,1.67,1.67,0,0,1-.71.06,6.74,6.74,0,0,1-2.44-1Zm-7.64.13a2.8,2.8,0,0,0-1.2,1.68,3.92,3.92,0,0,0,.24,2.29,6.07,6.07,0,0,0,3,3.18,6.27,6.27,0,0,1-.28-1.74,4.29,4.29,0,0,1-1.47-2.28,3.18,3.18,0,0,1,.3-2.58,2.21,2.21,0,0,1-.55-.55Zm11.86,0a2.21,2.21,0,0,1-.55.55,3.18,3.18,0,0,1,.3,2.58,4.29,4.29,0,0,1-1.47,2.28,6.27,6.27,0,0,1-.28,1.74,6.07,6.07,0,0,0,3-3.18,3.92,3.92,0,0,0,.24-2.29,2.8,2.8,0,0,0-1.2-1.68Zm-6.54,2.68-.89.52c1.61,3,2.54,6.37,4.64,9l1-.77A15.27,15.27,0,0,1,15,14.67c-.64-1.4-1.18-2.85-2.08-4.46Zm1.22,0-.29.54q.31.62.57,1.2c.2-.41.4-.82.61-1.22l-.89-.52Zm-1.5,3.15c-.19.44-.38.88-.58,1.31a15.27,15.27,0,0,1-2.69,4.27l1,.77a22.12,22.12,0,0,0,2.82-5c-.19-.44-.38-.89-.57-1.32ZM8.72,19.19l-.53.7L9.73,21l.53-.7L8.72,19.19Zm9.56,0-1.54,1.15.53.7,1.54-1.15-.53-.7Z"/><path class="cls-6" d="M23.05,23.05c1.19-1.2,1.31-3.19,2-4.78s2-3,2-4.77-1.35-3.24-2-4.77-.78-3.58-2-4.78-3.19-1.31-4.78-2-3-2-4.77-2V27c1.76,0,3.24-1.35,4.77-2S21.85,24.24,23.05,23.05Z"/></symbol></defs><use width="27" height="27" xlink:href="#Crusader-seal"/></svg>