<svg id="Layer_1" data-name="Layer 1" xmlns="http://www.w3.org/2000/svg" xmlns:xlink="http://www.w3.org/1999/xlink" viewBox="0 0 27 27"><defs><style>.cls-1{fill:#cc3533;}.cls-2{fill:#8f2826;}.cls-2,.cls-6{mix-blend-mode:multiply;}.cls-3{fill:#8e191c;}.cls-4{opacity:0.5;}.cls-5{fill:#721011;}.cls-6{fill:#332132;opacity:0.1;}</style><symbol id="Cleric-seal" data-name="Cleric-seal" viewBox="0 0 27 27"><path class="cls-1" d="M27,13.5c0,1.76-1.35,3.24-2,4.77s-.78,3.58-2,4.78-3.19,1.31-4.78,2-3,2-4.77,2-3.24-1.35-4.77-2-3.58-.78-4.78-2-1.31-3.19-2-4.78-2-3-2-4.77,1.35-3.24,2-4.77S2.76,5.15,4,4,7.14,2.64,8.73,2s3-2,4.77-2,3.24,1.35,4.77,2,3.58.78,4.78,2,1.31,3.19,2,4.78S27,11.74,27,13.5Z"/><circle class="cls-2" cx="13.5" cy="13" r="10.74"/><circle class="cls-3" cx="13.5" cy="14" r="10.74"/><g class="cls-4"><path class="cls-5" d="M10.47,6.66A2.8,2.8,0,0,0,8,9.39c0,1.48,1.07,2.48,2.34,3.59a12.84,12.84,0,0,1,3.17,3.45h0A12.84,12.84,0,0,1,16.67,13C17.94,11.87,19,10.87,19,9.39a2.8,2.8,0,0,0-2.48-2.73,3.28,3.28,0,0,0-3,2.12A3.28,3.28,0,0,0,10.47,6.66ZM7.36,12c-.27,0-.56.35-.56,1.25a6.39,6.39,0,0,0,.51,3.34c.47,1.15.68,2,2.18,2.74a1.89,1.89,0,0,1,0,1.31c-.11.5,1,.59,1.9.17s.84-1.86.67-2.79-.78-1.31-1.3-1.77c-.53-.76-.66-2.15-1.53-2.71-.18-.12-1.11-.24.17,2.94C7.7,16,8,14.12,7.88,12.69c0-.43-.27-.71-.52-.71Zm12.28,0c-.25,0-.49.28-.52.71-.12,1.43.18,3.35-1.5,3.77,1.28-3.18.35-3.06.17-2.94-.87.56-1,2-1.53,2.71-.52.46-1.11.69-1.3,1.77s-.24,2.3.67,2.79,2,.33,1.9-.17a1.89,1.89,0,0,1,0-1.31c1.5-.71,1.71-1.59,2.18-2.74a6.39,6.39,0,0,0,.51-3.34c0-.9-.29-1.26-.56-1.25Z"/></g><path class="cls-1" d="M10.47,5.94A2.8,2.8,0,0,0,8,8.67c0,1.48,1.07,2.48,2.34,3.59a12.84,12.84,0,0,1,3.17,3.45h0a12.84,12.84,0,0,1,3.17-3.45C17.94,11.15,19,10.15,19,8.67a2.8,2.8,0,0,0-2.48-2.73,3.28,3.28,0,0,0-3,2.12A3.28,3.28,0,0,0,10.47,5.94ZM7.36,11.26c-.27,0-.56.35-.56,1.25a6.39,6.39,0,0,0,.51,3.34c.47,1.15.68,2,2.18,2.74a1.89,1.89,0,0,1,0,1.31c-.11.5,1,.59,1.9.17s.84-1.86.67-2.79c-.19-1.08-.78-1.31-1.3-1.77-.53-.76-.66-2.15-1.53-2.71-.18-.12-1.11-.24.17,2.94C7.7,15.32,8,13.4,7.88,12c0-.43-.27-.71-.52-.71Zm12.28,0c-.25,0-.49.28-.52.71-.12,1.43.18,3.35-1.5,3.77,1.28-3.18.35-3.06.17-2.94-.87.56-1,1.95-1.53,2.71-.52.46-1.11.69-1.3,1.77-.17.93-.24,2.3.67,2.79s2,.33,1.9-.17a1.89,1.89,0,0,1,0-1.31c1.5-.71,1.71-1.59,2.18-2.74a6.39,6.39,0,0,0,.51-3.34c0-.9-.29-1.26-.56-1.25Z"/><path class="cls-6" d="M23.05,23.05c1.19-1.2,1.31-3.19,2-4.78s2-3,2-4.77-1.35-3.24-2-4.77-.78-3.58-2-4.78-3.19-1.31-4.78-2-3-2-4.77-2V27c1.76,0,3.24-1.35,4.77-2S21.85,24.24,23.05,23.05Z"/></symbol></defs><use width="27" height="27" xlink:href="#Cleric-seal"/></svg>