<?xml version="1.0" encoding="utf-8"?>
<!-- Generator: Adobe Illustrator 25.4.1, SVG Export Plug-In . SVG Version: 6.00 Build 0)  -->
<svg version="1.1" id="Layer_1" xmlns="http://www.w3.org/2000/svg" xmlns:xlink="http://www.w3.org/1999/xlink" x="0px" y="0px"
	 viewBox="0 0 16 16" enable-background="new 0 0 16 16" xml:space="preserve">
<g>
	<g>
		<path fill="#CC3533" d="M16,8c0,1-0.8,1.9-1.2,2.8c-0.4,0.9-0.5,2.1-1.2,2.8c-0.7,0.7-1.9,0.8-2.8,1.2C9.9,15.2,9,16,8,16
			c-1,0-1.9-0.8-2.8-1.2c-0.9-0.4-2.1-0.5-2.8-1.2c-0.7-0.7-0.8-1.9-1.2-2.8C0.8,9.9,0,9,0,8c0-1,0.8-1.9,1.2-2.8
			c0.4-0.9,0.5-2.1,1.2-2.8c0.7-0.7,1.9-0.8,2.8-1.2C6.1,0.8,7,0,8,0c1,0,1.9,0.8,2.8,1.2c0.9,0.4,2.1,0.5,2.8,1.2
			c0.7,0.7,0.8,1.9,1.2,2.8C15.2,6.1,16,7,16,8z"/>
		<g>
			<circle opacity="0.5" fill="#3B1313" cx="8" cy="7.7" r="6.4"/>
			<circle fill="#8F2826" cx="8" cy="8.3" r="6.4"/>
			<g opacity="0.5">
				<path opacity="0.5" fill="#3B1313" d="M8,4.3c-2,0-3.6,1.6-3.6,3.6c0,0,0,0.1,0,1.5c0,1.1,0.9,0.9,1.4,1.3
					C6,10.8,6.5,11,6.5,12.2H7v-0.6c0-0.1,0.1-0.2,0.2-0.2c0.1,0,0.2,0.1,0.2,0.2v0.6h0.4v-0.6c0-0.1,0.1-0.2,0.2-0.2
					c0.1,0,0.2,0.1,0.2,0.2v0.6h0.4v-0.6c0-0.1,0.1-0.2,0.2-0.2C9,11.4,9,11.5,9,11.6v0.6h0.5c0-1.2,0.5-1.4,0.7-1.6
					c0.5-0.4,1.4-0.2,1.4-1.3c0-1.4,0-1.5,0-1.5C11.6,5.9,10,4.3,8,4.3z M6.5,9.4C6.1,9.4,5.7,9,5.7,8.5c0-0.5,0.4-0.9,0.9-0.9
					C7,7.7,7.4,8,7.4,8.5C7.4,9,7,9.4,6.5,9.4z M8.7,10.6L8.7,10.6H7.4c0,0,0,0,0,0c0,0,0,0,0,0L8,9.1c0,0,0,0,0,0c0,0,0,0,0,0
					L8.7,10.6C8.7,10.6,8.7,10.6,8.7,10.6C8.7,10.6,8.7,10.6,8.7,10.6z M9.6,9.4C9.1,9.4,8.7,9,8.7,8.5c0-0.5,0.4-0.9,0.9-0.9
					c0.5,0,0.9,0.4,0.9,0.9C10.4,9,10,9.4,9.6,9.4z"/>
			</g>
			<g>
				<path fill="#CD982C" d="M8,3.7c-2,0-3.6,1.6-3.6,3.6c0,0,0,0.1,0,1.5c0,1.1,0.9,0.9,1.4,1.3c0.2,0.1,0.7,0.4,0.7,1.6H7V11
					c0-0.1,0.1-0.2,0.2-0.2c0.1,0,0.2,0.1,0.2,0.2v0.6h0.4V11c0-0.1,0.1-0.2,0.2-0.2c0.1,0,0.2,0.1,0.2,0.2v0.6h0.4V11
					c0-0.1,0.1-0.2,0.2-0.2C9,10.8,9,10.9,9,11v0.6h0.5c0-1.2,0.5-1.4,0.7-1.6c0.5-0.4,1.4-0.2,1.4-1.3c0-1.4,0-1.5,0-1.5
					C11.6,5.3,10,3.7,8,3.7z M6.5,8.8c-0.5,0-0.9-0.4-0.9-0.9c0-0.5,0.4-0.9,0.9-0.9c0.5,0,0.9,0.4,0.9,0.9C7.4,8.4,7,8.8,6.5,8.8z
					 M8.7,10.1L8.7,10.1H7.4c0,0,0,0,0,0c0,0,0,0,0,0L8,8.5c0,0,0,0,0,0c0,0,0,0,0,0L8.7,10.1C8.7,10,8.7,10,8.7,10.1
					C8.7,10,8.7,10.1,8.7,10.1z M9.6,8.8c-0.5,0-0.9-0.4-0.9-0.9c0-0.5,0.4-0.9,0.9-0.9c0.5,0,0.9,0.4,0.9,0.9
					C10.4,8.4,10,8.8,9.6,8.8z"/>
			</g>
		</g>
		<path opacity="0.1" fill="#332132" d="M13.7,13.7c0.7-0.7,0.8-1.9,1.2-2.8C15.2,9.9,16,9,16,8c0-1-0.8-1.9-1.2-2.8
			c-0.4-0.9-0.5-2.1-1.2-2.8c-0.7-0.7-1.9-0.8-2.8-1.2C9.9,0.8,9,0,8,0v16c1,0,1.9-0.8,2.8-1.2C11.8,14.4,12.9,14.4,13.7,13.7z"/>
	</g>
</g>
</svg>
