<?xml version="1.0" encoding="utf-8"?>
<!-- Generator: Adobe Illustrator 25.4.1, SVG Export Plug-In . SVG Version: 6.00 Build 0)  -->
<svg version="1.1" id="Layer_1" xmlns="http://www.w3.org/2000/svg" xmlns:xlink="http://www.w3.org/1999/xlink" x="0px" y="0px"
	 viewBox="0 0 27 27" style="enable-background:new 0 0 27 27;" xml:space="preserve">
<style type="text/css">
	.st0{fill:#CC3533;}
	.st1{fill:#8F2826;}
	.st2{opacity:0.5;}
	.st3{opacity:0.1;fill:#332132;}
</style>
<symbol  id="Monster_x5F_seal" viewBox="6.5 -33.5 27 27">
	<path class="st0" d="M33.5-20c0-1.8-1.3-3.2-2-4.8c-0.7-1.6-0.8-3.6-2-4.8c-1.2-1.2-3.2-1.3-4.8-2c-1.5-0.6-3-2-4.8-2
		c-1.8,0-3.2,1.3-4.8,2c-1.6,0.7-3.6,0.8-4.8,2c-1.2,1.2-1.3,3.2-2,4.8c-0.6,1.5-2,3-2,4.8c0,1.8,1.3,3.2,2,4.8
		c0.7,1.6,0.8,3.6,2,4.8c1.2,1.2,3.2,1.3,4.8,2c1.5,0.6,3,2,4.8,2c1.8,0,3.2-1.3,4.8-2c1.6-0.7,3.6-0.8,4.8-2c1.2-1.2,1.3-3.2,2-4.8
		C32.2-16.8,33.5-18.2,33.5-20z"/>
	<g>
		<circle class="st1" cx="20" cy="-19.5" r="10.7"/>
		<circle class="st1" cx="20" cy="-20.5" r="10.7"/>
		<g class="st2">
			<path class="st1" d="M20-13.8c-3.3,0-6-2.7-6-6c0,0,0-0.2,0-2.5c0-1.8,1.5-1.5,2.3-2.1c0.4-0.2,1.1-0.6,1.1-2.7h1v1
				c0,0.2,0.1,0.3,0.3,0.3c0.2,0,0.3-0.1,0.3-0.3v-1h0.8v1c0,0.2,0.1,0.3,0.3,0.3c0.2,0,0.3-0.1,0.3-0.3v-1h0.6v1
				c0,0.2,0.1,0.3,0.3,0.3s0.3-0.1,0.3-0.3v-1h0.8c0,2,0.8,2.4,1.1,2.7c0.8,0.7,2.3,0.4,2.3,2.1c0,2.3,0,2.5,0,2.5
				C26-16.5,23.3-13.8,20-13.8z M17.5-22.3c-0.8,0-1.4,0.6-1.4,1.4c0,0.8,0.6,1.4,1.4,1.4c0.8,0,1.4-0.6,1.4-1.4
				C19-21.6,18.3-22.3,17.5-22.3z M21.1-24.5L21.1-24.5h-2.2c0,0,0,0-0.1,0c0,0,0,0,0,0.1l1.1,2.5c0,0,0,0,0.1,0c0,0,0.1,0,0.1,0
				l1.1-2.5C21.2-24.4,21.2-24.4,21.1-24.5C21.2-24.4,21.1-24.5,21.1-24.5z M22.7-22.3c-0.8,0-1.4,0.6-1.4,1.4
				c0,0.8,0.6,1.4,1.4,1.4c0.8,0,1.4-0.6,1.4-1.4C24.1-21.6,23.5-22.3,22.7-22.3z"/>
		</g>
		<g>
			<path class="st0" d="M20-12.8c-3.3,0-6-2.7-6-6c0,0,0-0.2,0-2.5c0-1.8,1.5-1.5,2.3-2.1c0.4-0.2,1.1-0.6,1.1-2.7h1v1
				c0,0.2,0.1,0.3,0.3,0.3c0.2,0,0.3-0.1,0.3-0.3v-1h0.8v1c0,0.2,0.1,0.3,0.3,0.3c0.2,0,0.3-0.1,0.3-0.3v-1h0.6v1
				c0,0.2,0.1,0.3,0.3,0.3s0.3-0.1,0.3-0.3v-1h0.8c0,2,0.8,2.4,1.1,2.7c0.8,0.7,2.3,0.4,2.3,2.1c0,2.3,0,2.5,0,2.5
				C26-15.5,23.3-12.8,20-12.8z M17.5-21.3c-0.8,0-1.4,0.6-1.4,1.4c0,0.8,0.6,1.4,1.4,1.4c0.8,0,1.4-0.6,1.4-1.4
				C19-20.6,18.3-21.3,17.5-21.3z M21.1-23.5L21.1-23.5h-2.2c0,0,0,0-0.1,0c0,0,0,0,0,0.1l1.1,2.5c0,0,0,0,0.1,0c0,0,0.1,0,0.1,0
				l1.1-2.5C21.2-23.4,21.2-23.4,21.1-23.5C21.2-23.4,21.1-23.5,21.1-23.5z M22.7-21.3c-0.8,0-1.4,0.6-1.4,1.4
				c0,0.8,0.6,1.4,1.4,1.4c0.8,0,1.4-0.6,1.4-1.4C24.1-20.6,23.5-21.3,22.7-21.3z"/>
		</g>
	</g>
	<path class="st3" d="M29.5-29.5c1.2,1.2,1.3,3.2,2,4.8c0.6,1.5,2,3,2,4.8c0,1.8-1.3,3.2-2,4.8c-0.7,1.6-0.8,3.6-2,4.8
		c-1.2,1.2-3.2,1.3-4.8,2c-1.5,0.6-3,2-4.8,2v-27c1.8,0,3.2,1.3,4.8,2C26.4-30.9,28.4-30.7,29.5-29.5z"/>
</symbol>
<use xlink:href="#Monster_x5F_seal"  width="27" height="27" id="XMLID_10_" x="6.5" y="-33.5" transform="matrix(1 0 0 -1 -6.5 -6.5)" style="overflow:visible;"/>
</svg>
